<?xml version="1.0" encoding="UTF-8"?><svg id="Logo" xmlns="http://www.w3.org/2000/svg" viewBox="0 0 427.18 400"><defs><style>.cls-1,.cls-2{fill:#fff;}.cls-2,.cls-3,.cls-4{fill-rule:evenodd;}.cls-3,.cls-5{fill:#1c75bc;}.cls-4{fill:#004b94;}</style></defs><path class="cls-4" d="M29.56,314.16c2.14-2.14,4.27-3.63,6.41-4.47,2.14-.85,4.83-1.27,8.07-1.27,6.29,0,11.14,2.16,14.57,6.47,3.43,4.31,5.15,10.38,5.15,18.22,0,8.23-1.8,14.56-5.39,19-3.6,4.44-8.73,6.65-15.4,6.65-4.6,0-8.68-1.55-12.24-4.67v21.48h-10.59v-66.27h9.43v4.86h0Zm12.34,34.78c3.82,0,6.63-1.2,8.41-3.6,1.78-2.4,2.67-6.19,2.67-11.36s-.89-9.35-2.67-11.91c-1.78-2.55-4.55-3.83-8.31-3.83-7.58,0-11.37,5.18-11.37,15.54s3.76,15.16,11.27,15.16Z"/><path class="cls-4" d="M72.7,312.51c4.86-2.72,10.56-4.08,17.1-4.08,6.87,0,11.97,1.93,15.31,5.79,3.33,3.85,5,9.76,5,17.73v25.94h-9.03v-4.08c-2.46,3.3-6.8,4.95-13.02,4.95-5.57,0-9.91-1.4-13.02-4.23-3.11-2.81-4.67-6.72-4.67-11.71s1.57-8.69,4.72-11.51c3.14-2.82,7.43-4.23,12.87-4.23,4.79,0,8.71,.81,11.76,2.43-.13-4.15-1.07-7.11-2.82-8.89-1.75-1.78-4.57-2.67-8.45-2.67s-8.1,.84-12.43,2.53l-3.31-7.97h0Zm17.59,37.02c6.29,0,9.43-2.23,9.43-6.7s-3.14-6.6-9.43-6.6-9.62,2.26-9.62,6.8,3.21,6.51,9.62,6.51Z"/><path class="cls-4" d="M152.18,322.13c-3.63-2.59-7.39-3.88-11.27-3.88s-6.62,1.4-8.8,4.17c-2.17,2.79-3.26,6.55-3.26,11.28s1.09,8.61,3.26,11.27c2.17,2.66,5.26,3.99,9.28,3.99s7.97-1.39,11.66-4.18l4.86,7.87c-4.73,4.08-10.56,6.12-17.49,6.12s-12.55-2.19-16.47-6.56c-3.92-4.37-5.88-10.51-5.88-18.41s2.01-14.02,6.03-18.56c4.01-4.54,9.49-6.81,16.42-6.81,6.29,0,11.79,1.95,16.52,5.84l-4.85,7.87Z"/><polygon class="cls-4" points="206.98 357.88 193.18 357.88 176.18 337.68 176.18 357.88 165.5 357.88 165.5 291.43 176.18 291.43 176.18 331.65 191.05 309.3 203.1 309.3 186.29 333.78 206.98 357.88"/><path class="cls-4" d="M235.65,358.27h-5.64c-13.08,0-19.62-6.73-19.62-20.21v-38.87h10.69v10.11h15.84l-4.08,9.33h-11.76v18.94c0,3.76,.81,6.51,2.43,8.26,1.62,1.74,4.14,2.62,7.57,2.62h4.57v9.81Z"/><path class="cls-4" d="M240.2,333.59c0-8.03,1.92-14.23,5.74-18.6,3.83-4.38,9.2-6.56,16.13-6.56s12.39,2.19,16.18,6.56c3.79,4.37,5.68,10.57,5.68,18.6s-1.92,14.16-5.73,18.56c-3.82,4.4-9.2,6.6-16.13,6.6s-12.23-2.22-16.08-6.65c-3.85-4.44-5.79-10.61-5.79-18.51h0Zm10.79,.58c0,9.85,3.69,14.78,11.08,14.78s11.07-4.92,11.07-14.78c0-10.62-3.69-15.93-11.07-15.93s-11.08,5.3-11.08,15.93Z"/><path class="cls-4" d="M302.49,315.13c2.98-4.14,7.54-6.21,13.69-6.21h1.36v10.79h-1.36c-4.34,0-7.49,1.14-9.47,3.4-1.98,2.27-2.97,5.9-2.97,10.89v23.9h-10.69v-48.58h9.43v5.83Z"/><path class="cls-4" d="M334.45,300.8c-1.23,1.2-2.75,1.79-4.57,1.79s-3.34-.6-4.57-1.79c-1.23-1.2-1.85-2.73-1.85-4.62s.62-3.41,1.85-4.62c1.23-1.2,2.75-1.8,4.57-1.8s3.34,.6,4.57,1.8c1.23,1.2,1.85,2.74,1.85,4.62s-.62,3.42-1.85,4.62h0Zm5.83,57.47h-2.42c-4.8,0-8.21-1.1-10.25-3.3-2.04-2.21-3.06-5.89-3.06-11.08v-34.59h10.69v33.72c0,1.82,.28,3.12,.82,3.89,.55,.78,1.48,1.16,2.77,1.16h1.46v10.2Z"/><path class="cls-4" d="M349.02,312.51c4.86-2.72,10.56-4.08,17.11-4.08s11.97,1.93,15.31,5.79c3.33,3.85,5,9.76,5,17.73v25.94h-9.04v-4.08c-2.46,3.3-6.81,4.95-13.02,4.95-5.57,0-9.91-1.4-13.02-4.23-3.11-2.81-4.66-6.72-4.66-11.71s1.57-8.69,4.71-11.51c3.14-2.82,7.44-4.23,12.87-4.23,4.79,0,8.71,.81,11.76,2.43-.13-4.15-1.07-7.11-2.81-8.89-1.75-1.78-4.57-2.67-8.46-2.67s-8.1,.84-12.43,2.53l-3.31-7.97h0Zm17.59,37.02c6.29,0,9.43-2.23,9.43-6.7s-3.14-6.6-9.43-6.6-9.62,2.26-9.62,6.8,3.21,6.51,9.62,6.51Z"/><path class="cls-4" d="M414.22,358.27h-3.3c-5.05,0-8.65-1.1-10.79-3.3-2.14-2.21-3.2-5.89-3.2-11.08v-52.46h10.68v51.59c0,1.88,.34,3.22,1.03,4.03,.67,.81,1.83,1.22,3.45,1.22h2.14v10Z"/><path class="cls-4" d="M181.11,12.43h50.09c3.62,0,6.91,1.49,9.3,3.87l.03,.03c2.38,2.39,3.87,5.68,3.87,9.3v25.88c5.02,.63,9.76,2.13,14.08,4.36,15.53-13.9,33.35-29.4,33.41-29.45,2.36-2.11,5.71-2.41,8.35-.99h0l45.73,24.72c2.18,1.05,3.8,3.15,4.12,5.73,8.96,72.76-34.35,145.68-57.7,178.95-.15,25.11-20.72,45.59-45.86,45.59h-80.73c-25.13,0-45.71-20.49-45.86-45.59-23.35-33.27-66.67-106.18-57.71-178.95,.32-2.58,1.94-4.69,4.12-5.73l45.72-24.73h0c2.64-1.41,5.99-1.11,8.35,1.01,.05,.05,17.88,15.54,33.41,29.45,4.32-2.23,9.07-3.73,14.08-4.36V25.63c0-3.62,1.49-6.91,3.87-9.3l.03-.03c2.39-2.38,5.68-3.87,9.3-3.87h0Zm113.02,193.05c18.82-30.83,40.81-76.59,42.37-124.07h0l-54.98,91.12v31.53h0v19.65m-161.6-15.4l9.69,15.4h0c.01-.17,0,.17,0,0l1.17-51.17-54.99-91.12c1.62,48.95,24.93,96.08,44.12,126.9h0Zm10.87-64.19v-50.58c0-10.99,4.24-21.04,11.17-28.58-9.93-8.86-21.5-19.02-27.4-24.2l-34.79,18.82,51.01,84.54h0Zm51.82-92.92h47.08v-13.96c0-5.57-4.52-10.09-10.09-10.09h-26.89c-5.58,0-10.1,4.52-10.1,10.1v13.96h0Zm87.74,13.76c6.93,7.54,11.17,17.59,11.17,28.58v50.58l51.01-84.54-34.78-18.82c-5.91,5.18-17.46,15.33-27.4,24.2Z"/><path class="cls-3" d="M219.96,199.08c2.84,.89,4.92,1.43,6.24,1.59,3.51,.47,5.33-.59,5.46-3.16,.31-10.33,.93-20.74,1.84-31.25,.85-9.71,1.5-16.76,3.15-29.52,1.56-12.14,2.97-20.27,3.78-24.65,1.35-7.25,2.46-12.98,3.34-17.19-.03-.18,.03-.43,.18-.76-.07-.35-.07-.61,0-.78,.07-.16,.07-.42,0-.78-.39-1.95-1.98-3.54-4.78-4.78-2.55-1.03-5.73-2.27-9.54-3.72-3.8-1.45-7.48-2.76-11.02-3.92-3.53-1.16-6.78-2.19-9.73-3.1-2.95-.91-4.87-1.42-5.75-1.54-3.29-.43-5.44,.58-6.44,3.04-1.77,5.12-3.28,11.79-4.54,20.01-1.26,8.21-2.3,17.02-3.12,26.42-.82,9.4-1.43,18.99-1.85,28.79-.42,9.8-.54,18.94-.36,27.43l.16,.8c.28,1.41,.92,2.75,1.91,4,.99,1.26,2.42,2.27,4.28,3.03,1.64,.73,4.08,1.75,7.32,3.04,3.24,1.3,6.59,2.55,10.03,3.79,3.14,1.12,6.28,2.17,9.44,3.19h0Z"/><path class="cls-2" d="M214.96,202.08c2.84,.89,4.92,1.43,6.24,1.59,3.51,.47,5.33-.59,5.46-3.16,.31-10.33,.93-20.74,1.84-31.25,.92-10.5,1.96-20.35,3.15-29.52,1.18-9.18,2.44-17.4,3.78-24.65,1.35-7.25,2.46-12.98,3.34-17.19-.03-.18,.03-.43,.18-.76-.07-.35-.07-.61,0-.78,.07-.16,.07-.42,0-.78-.39-1.95-1.98-3.54-4.78-4.78-2.55-1.03-5.73-2.27-9.54-3.72-3.8-1.45-7.48-2.76-11.02-3.92-3.53-1.16-6.78-2.19-9.73-3.1-2.95-.91-4.87-1.42-5.75-1.54-3.29-.43-5.44,.58-6.44,3.04-1.77,5.12-3.28,11.79-4.54,20.01-1.26,8.21-2.3,17.02-3.12,26.42-.82,9.4-1.43,18.99-1.85,28.79-.42,9.8-.54,18.94-.36,27.43l.16,.8c.28,1.41,.92,2.75,1.91,4,.99,1.26,2.42,2.27,4.28,3.03,1.64,.73,4.08,1.75,7.32,3.04,3.24,1.3,6.59,2.55,10.03,3.79,3.14,1.12,6.28,2.17,9.44,3.19h0Z"/><ellipse class="cls-5" cx="204.14" cy="219.19" rx="15.59" ry="25.44" transform="translate(-71.65 336.05) rotate(-70)"/><ellipse class="cls-1" cx="199.14" cy="222.19" rx="15.59" ry="25.44" transform="translate(-77.76 333.33) rotate(-70)"/></svg>